<svg width="37" height="37" viewBox="0 0 37 37" fill="none" xmlns="http://www.w3.org/2000/svg">
<path d="M23.125 8.1595C23.125 7.50867 23.466 6.92017 23.8602 6.40133C24.2653 5.86967 24.5 5.239 24.5 4.5625C24.5 2.66317 22.6538 1.125 20.375 1.125C18.0962 1.125 16.25 2.665 16.25 4.5625C16.25 5.239 16.4847 5.86967 16.8898 6.40133C17.284 6.92017 17.625 7.50867 17.625 8.1595C17.6258 8.3167 17.595 8.47247 17.5344 8.61753C17.4738 8.7626 17.3847 8.89401 17.2724 9.00397C17.16 9.11393 17.0267 9.20019 16.8804 9.25763C16.734 9.31507 16.5777 9.34251 16.4205 9.33833C13.8697 9.26485 11.3233 9.08135 8.78833 8.78833C9.12933 11.7455 9.3255 14.7467 9.36583 17.7845C9.36753 17.9438 9.33756 18.1019 9.27765 18.2495C9.21775 18.3972 9.1291 18.5314 9.01686 18.6445C8.90462 18.7576 8.77104 18.8473 8.62385 18.9083C8.47667 18.9693 8.31883 19.0005 8.1595 19C7.50867 19 6.92017 18.659 6.40133 18.2648C5.87585 17.8544 5.22928 17.6294 4.5625 17.625C2.66317 17.625 1.125 19.4712 1.125 21.75C1.125 24.0288 2.665 25.875 4.5625 25.875C5.239 25.875 5.86967 25.6403 6.40133 25.2352C6.92017 24.841 7.50867 24.5 8.1595 24.5C8.72783 24.5 9.177 24.9767 9.13483 25.545C8.90679 28.6534 8.51391 31.7476 7.95783 34.8143C10.7408 35.1627 13.5642 35.3808 16.4205 35.4633C16.5777 35.4675 16.734 35.4401 16.8804 35.3826C17.0267 35.3252 17.16 35.2389 17.2724 35.129C17.3847 35.019 17.4738 34.8876 17.5344 34.7425C17.595 34.5975 17.6258 34.4417 17.625 34.2845C17.625 33.6337 17.284 33.0452 16.8898 32.5263C16.4794 32.0009 16.2544 31.3543 16.25 30.6875C16.25 28.79 18.098 27.25 20.375 27.25C22.6538 27.25 24.5 28.79 24.5 30.6875C24.5 31.364 24.2653 31.9947 23.8602 32.5263C23.466 33.0452 23.1268 33.6337 23.1268 34.2845C23.1268 34.895 23.6347 35.3827 24.2452 35.3478C27.5809 35.1516 30.9027 34.766 34.1947 34.1928C34.6928 31.3296 35.0489 28.4434 35.2617 25.545C35.2713 25.411 35.2531 25.2765 35.2083 25.1499C35.1634 25.0233 35.093 24.9073 35.0012 24.8092C34.9095 24.7111 34.7985 24.633 34.6751 24.5798C34.5518 24.5266 34.4188 24.4994 34.2845 24.5C33.6337 24.5 33.0452 24.841 32.5263 25.2352C31.9947 25.6403 31.364 25.875 30.6875 25.875C28.79 25.875 27.25 24.0288 27.25 21.75C27.25 19.4712 28.79 17.625 30.6875 17.625C31.3658 17.625 31.9947 17.8597 32.5263 18.2648C33.0452 18.659 33.6337 19 34.2863 19C34.4457 19.0005 34.6035 18.9693 34.7507 18.9083C34.8979 18.8473 35.0315 18.7576 35.1437 18.6445C35.2559 18.5314 35.3446 18.3972 35.4045 18.2495C35.4644 18.1019 35.4944 17.9438 35.4927 17.7845C35.4486 14.4989 35.2221 11.2183 34.8143 7.95783C31.3567 8.58483 27.8293 9.01017 24.2433 9.221C24.099 9.229 23.9546 9.2074 23.8189 9.15751C23.6833 9.10762 23.5592 9.0305 23.4545 8.9309C23.3497 8.8313 23.2665 8.71132 23.2098 8.57835C23.1531 8.44537 23.1243 8.30404 23.125 8.1595Z" stroke="url(#paint0_linear_146_338)" stroke-width="2" stroke-linecap="round" stroke-linejoin="round"/>
<defs>
<linearGradient id="paint0_linear_146_338" x1="18.3089" y1="1.125" x2="18.3089" y2="35.4637" gradientUnits="userSpaceOnUse">
<stop offset="0.369" stop-color="#6717CD"/>
<stop offset="0.614" stop-color="#1E5EDD"/>
<stop offset="1" stop-color="#6498FF"/>
</linearGradient>
</defs>
</svg>
