<svg width="17" height="32" viewBox="0 0 17 32" fill="none" xmlns="http://www.w3.org/2000/svg">
<mask id="path-1-inside-1_146_341" fill="white">
<path d="M16.1871 26.0389C16.0436 25.7493 15.8606 25.4941 15.6609 25.256C15.3594 24.8983 15.0205 24.575 14.6857 24.2209C14.3498 23.8664 14.0171 23.4833 13.7198 23.0092C12.8288 21.5931 12.3423 20.1656 12.0803 19.0947C11.9493 18.5592 11.8744 18.1137 11.8328 17.8044C11.8167 17.6848 11.8063 17.5933 11.7985 17.5174H13.121C13.2343 17.5184 13.3466 17.493 13.4464 17.4457C13.5961 17.375 13.7116 17.257 13.7843 17.1254C13.8581 16.9934 13.8925 16.8468 13.8925 16.6981C13.8925 16.5261 13.8446 16.3493 13.7501 16.1887C13.6544 16.0281 13.5119 15.8856 13.33 15.778C13.067 15.6231 12.8195 15.4531 12.6594 15.2846C12.5783 15.2004 12.5191 15.1188 12.4827 15.0429C12.4463 14.967 12.4297 14.8994 12.4297 14.8225V14.4139H12.4227C12.5519 14.0453 12.7419 13.4969 12.9506 12.8699C13.1378 12.3074 13.3385 11.6873 13.5194 11.0904C13.7013 10.4932 13.8635 9.92025 13.9727 9.44669C13.9956 9.3495 14.007 9.25075 14.007 9.15356C14.007 8.9435 13.9571 8.73762 13.8698 8.54844C13.7378 8.26356 13.5183 8.013 13.2303 7.83206C12.9434 7.65119 12.5857 7.5425 12.1896 7.5425C11.7103 7.5425 10.7246 7.5425 9.85963 7.5425C9.78425 7.5425 9.71175 7.5425 9.63869 7.5425C9.62256 7.23319 9.60075 6.79494 9.57994 6.33856C9.56544 6.00894 9.55188 5.67206 9.54144 5.37162C9.53756 5.25775 9.53444 5.15175 9.53188 5.05031C9.62988 5.05662 9.72913 5.06281 9.83363 5.07169C10.2329 5.1055 10.6602 5.15694 10.9866 5.19956C11.1488 5.22094 11.2871 5.24012 11.3838 5.25362C11.4316 5.26094 11.4701 5.26662 11.496 5.27075C11.522 5.27388 11.5345 5.27644 11.5345 5.27644L12.0044 5.34769V2.16681L11.5345 2.2385C11.5345 2.2385 11.5293 2.23956 11.5178 2.24113C11.4294 2.25463 11.0198 2.31494 10.5353 2.37162C10.2931 2.39975 10.0311 2.42675 9.78363 2.447C9.69994 2.45375 9.62119 2.45844 9.54138 2.46369C9.54738 2.36856 9.55363 2.27287 9.56219 2.172C9.59544 1.77225 9.64638 1.34494 9.68906 1.0195C9.71088 0.85625 9.73063 0.7185 9.74419 0.62125C9.75144 0.573437 9.75663 0.534938 9.76081 0.509C9.76394 0.483 9.76606 0.470062 9.76606 0.470062L9.83763 0H6.65719L6.72888 0.47C6.72888 0.47 6.72994 0.475688 6.73094 0.487687C6.74444 0.575 6.80375 0.985125 6.86094 1.46969C6.889 1.71244 6.91706 1.97394 6.93681 2.22137C6.94356 2.30562 6.94819 2.38412 6.95319 2.46362C6.85806 2.45738 6.76213 2.45162 6.66131 2.44281C6.26206 2.40956 5.83469 2.35856 5.50931 2.31494C5.34606 2.29413 5.20781 2.27437 5.11113 2.26087C5.06225 2.25356 5.02488 2.24844 4.99881 2.24475C4.97281 2.24113 4.95931 2.2385 4.95931 2.2385L4.48938 2.16725V5.34769L4.95931 5.27644C4.95931 5.27644 4.96556 5.27544 4.97694 5.27388C5.06431 5.26038 5.475 5.20006 5.95944 5.14388C6.20169 5.11475 6.46269 5.08775 6.71113 5.0675C6.7985 5.06019 6.88063 5.0555 6.963 5.05031C6.95931 5.18969 6.95444 5.34094 6.94813 5.50262C6.92944 6.03387 6.90031 6.65356 6.87644 7.13912C6.86913 7.29144 6.86238 7.423 6.85619 7.5425C5.94306 7.5425 4.82563 7.5425 4.30419 7.5425C3.77606 7.542 3.31856 7.73694 2.99944 8.03531C2.84031 8.1845 2.71244 8.35812 2.62519 8.54838C2.53675 8.73763 2.48788 8.9435 2.48788 9.1535C2.48788 9.25069 2.49931 9.34944 2.52219 9.44775L2.52113 9.44669C2.63138 9.92031 2.79356 10.4932 2.97444 11.0904C3.35731 12.3501 3.8265 13.7136 4.07181 14.4139H4.06506V14.8225C4.06506 14.8994 4.04844 14.967 4.01206 15.0429C3.958 15.1562 3.84988 15.2841 3.70019 15.4109C3.54944 15.5378 3.36125 15.6615 3.16469 15.778C2.98275 15.8856 2.83931 16.028 2.74469 16.1887C2.64906 16.3493 2.60119 16.5261 2.60119 16.6981C2.60225 16.8957 2.66356 17.0921 2.79669 17.2512C2.86325 17.3302 2.9485 17.3989 3.04831 17.4456C3.14813 17.4929 3.26044 17.5184 3.37269 17.5174H4.69575C4.66769 17.7939 4.59388 18.3662 4.40831 19.1201C4.14419 20.1879 3.65869 21.6044 2.77494 23.0091C2.50981 23.4302 2.21869 23.78 1.92031 24.1018C1.69788 24.3426 1.47119 24.5676 1.25388 24.7938C0.927375 25.1338 0.617625 25.4784 0.382625 25.8964C0.265125 26.1054 0.168375 26.3321 0.101875 26.5795C0.0353123 26.8274 0 27.0952 0 27.3848C0 27.4524 0.0020624 27.522 0.00624991 27.5938V27.5927C0.0218749 27.8854 0.108125 28.1391 0.231937 28.3397C0.325437 28.4904 0.436688 28.6116 0.547938 28.7068C0.618938 28.766 0.688313 28.8107 0.756438 28.8523L0.176813 29.8286V32H16.3172V29.8286L15.7396 28.8549C15.8431 28.7909 15.9523 28.7099 16.0573 28.6028C16.1674 28.4904 16.2704 28.3496 16.3473 28.1796C16.4253 28.0101 16.4773 27.8116 16.4887 27.5927C16.4928 27.5214 16.4949 27.4524 16.4949 27.3848C16.4959 26.8706 16.3794 26.4241 16.1871 26.0389ZM7.37869 4.21812C7.14369 4.21812 6.87238 4.23419 6.59269 4.25812C6.12975 4.29706 5.64969 4.35687 5.30656 4.40263V3.11287C5.442 3.13106 5.59688 3.15081 5.76606 3.17112C6.026 3.20231 6.313 3.2335 6.59269 3.25744C6.87238 3.28081 7.14369 3.29694 7.37869 3.29694H7.78731V2.88888C7.78631 2.65388 7.77069 2.3825 7.74675 2.10281C7.70775 1.64019 7.64825 1.15981 7.60225 0.816688H8.892C8.87381 0.951813 8.8535 1.10675 8.83325 1.27625C8.80206 1.53562 8.77088 1.82313 8.748 2.10281C8.72413 2.3825 8.70744 2.65388 8.70744 2.88888V3.29694H9.11606C9.35 3.29694 9.62131 3.28081 9.90206 3.25694C10.365 3.21794 10.8451 3.15819 11.1882 3.11244V4.40219C11.053 4.38394 10.8978 4.36419 10.7286 4.34344C10.4687 4.31275 10.1818 4.28156 9.90206 4.25819C9.62131 4.23425 9.35 4.21819 9.11606 4.21819H8.70744V4.62675C8.70744 4.85187 8.71681 5.17263 8.72925 5.53237C8.7545 6.21706 8.7945 7.03575 8.8205 7.54262C8.79038 7.54262 8.75656 7.54262 8.72825 7.54262C8.434 7.54262 8.24794 7.54262 8.24688 7.54262C8.24688 7.54262 8.01863 7.54262 7.67425 7.54262C7.6865 7.30087 7.70206 6.99156 7.71769 6.65525C7.73431 6.28662 7.75194 5.891 7.76444 5.53237C7.77794 5.17263 7.78631 4.85187 7.78631 4.62675V4.21812H7.37869ZM4.24919 12.4001C4.07244 11.8657 3.88844 11.2902 3.72313 10.7433C3.55888 10.1969 3.41431 9.67813 3.31763 9.26231V9.26125C3.30931 9.22744 3.30513 9.19213 3.30513 9.15369C3.30513 9.07256 3.32388 8.98263 3.36644 8.89213C3.42881 8.756 3.54219 8.62237 3.69913 8.52406C3.85619 8.42531 4.05681 8.36031 4.30425 8.35981C5.26394 8.35981 8.24688 8.35981 8.24688 8.35981C8.24688 8.35981 11.2308 8.35981 12.1894 8.35981C12.52 8.36088 12.7675 8.47525 12.938 8.63331C13.0223 8.71181 13.0867 8.80175 13.1283 8.89219C13.1698 8.98269 13.1896 9.07263 13.1896 9.15375C13.1896 9.19219 13.1854 9.22806 13.1771 9.26237C13.0743 9.70581 12.9162 10.2662 12.7384 10.8531C12.4711 11.7337 12.1572 12.6752 11.9108 13.3951C11.7881 13.7554 11.681 14.06 11.6051 14.2747C11.5869 14.3267 11.5708 14.3729 11.5562 14.4141H4.93806C4.81481 14.0667 4.5445 13.2931 4.24919 12.4001ZM3.44656 16.6062C3.46944 16.5693 3.50794 16.5245 3.58169 16.4803C3.86969 16.3083 4.17225 16.1107 4.42388 15.8508C4.54963 15.7209 4.663 15.5727 4.74613 15.4006C4.77213 15.3476 4.78825 15.2884 4.8075 15.2311H11.6868C11.7058 15.2884 11.7218 15.3476 11.7476 15.4006C11.8745 15.659 12.0636 15.8618 12.2674 16.0349C12.4723 16.208 12.6969 16.352 12.9131 16.4804C12.9869 16.5246 13.0254 16.5688 13.0473 16.6063C13.0701 16.6436 13.0753 16.6753 13.0753 16.6982L13.0751 16.7009H3.41881L3.41856 16.6982C3.4185 16.6752 3.42475 16.6436 3.44656 16.6062ZM1.03863 26.4018C1.14469 26.1891 1.28606 25.988 1.45969 25.7816C1.71856 25.4712 2.04919 25.1546 2.40163 24.7829C2.75413 24.4108 3.12844 23.9824 3.46631 23.4444C4.41663 21.9316 4.93019 20.4224 5.20781 19.2892C5.41781 18.4304 5.49269 17.7884 5.51719 17.5176H10.9777C11.0021 17.7884 11.0769 18.4304 11.287 19.2892C11.5646 20.4224 12.0772 21.9316 13.0285 23.4444C13.3279 23.9221 13.6576 24.314 13.9746 24.6566C14.2127 24.9134 14.4425 25.1427 14.6514 25.36C14.9654 25.6854 15.2243 25.9827 15.4001 26.2968C15.4874 26.4532 15.5561 26.6149 15.6028 26.7917C15.6506 26.9684 15.6776 27.1619 15.6776 27.3849C15.6776 27.4374 15.6766 27.4914 15.6735 27.5471C15.6631 27.7102 15.6215 27.8221 15.5664 27.9125C15.5248 27.9801 15.4739 28.0357 15.4177 28.083C15.3346 28.1537 15.2399 28.2036 15.1682 28.2327C15.1328 28.2473 15.1027 28.2566 15.085 28.2619L15.0679 28.2665L15.0653 28.2671L15.033 28.2738V28.2291H1.46175V28.2738L1.43056 28.2671C1.42844 28.2671 1.38481 28.2567 1.32344 28.2312C1.23094 28.1938 1.10406 28.1226 1.00844 28.0176C0.959563 27.9646 0.918 27.9037 0.88475 27.8288C0.8525 27.7539 0.828625 27.664 0.821375 27.5471V27.5455C0.81825 27.4909 0.817188 27.4373 0.817188 27.3849C0.818188 26.9891 0.899313 26.6856 1.03863 26.4018ZM15.5009 31.1828H0.993938V30.0532L1.592 29.0457H14.9028L15.5009 30.0532V31.1828Z"/>
</mask>
<path d="M16.1871 26.0389C16.0436 25.7493 15.8606 25.4941 15.6609 25.256C15.3594 24.8983 15.0205 24.575 14.6857 24.2209C14.3498 23.8664 14.0171 23.4833 13.7198 23.0092C12.8288 21.5931 12.3423 20.1656 12.0803 19.0947C11.9493 18.5592 11.8744 18.1137 11.8328 17.8044C11.8167 17.6848 11.8063 17.5933 11.7985 17.5174H13.121C13.2343 17.5184 13.3466 17.493 13.4464 17.4457C13.5961 17.375 13.7116 17.257 13.7843 17.1254C13.8581 16.9934 13.8925 16.8468 13.8925 16.6981C13.8925 16.5261 13.8446 16.3493 13.7501 16.1887C13.6544 16.0281 13.5119 15.8856 13.33 15.778C13.067 15.6231 12.8195 15.4531 12.6594 15.2846C12.5783 15.2004 12.5191 15.1188 12.4827 15.0429C12.4463 14.967 12.4297 14.8994 12.4297 14.8225V14.4139H12.4227C12.5519 14.0453 12.7419 13.4969 12.9506 12.8699C13.1378 12.3074 13.3385 11.6873 13.5194 11.0904C13.7013 10.4932 13.8635 9.92025 13.9727 9.44669C13.9956 9.3495 14.007 9.25075 14.007 9.15356C14.007 8.9435 13.9571 8.73762 13.8698 8.54844C13.7378 8.26356 13.5183 8.013 13.2303 7.83206C12.9434 7.65119 12.5857 7.5425 12.1896 7.5425C11.7103 7.5425 10.7246 7.5425 9.85963 7.5425C9.78425 7.5425 9.71175 7.5425 9.63869 7.5425C9.62256 7.23319 9.60075 6.79494 9.57994 6.33856C9.56544 6.00894 9.55188 5.67206 9.54144 5.37162C9.53756 5.25775 9.53444 5.15175 9.53188 5.05031C9.62988 5.05662 9.72913 5.06281 9.83363 5.07169C10.2329 5.1055 10.6602 5.15694 10.9866 5.19956C11.1488 5.22094 11.2871 5.24012 11.3838 5.25362C11.4316 5.26094 11.4701 5.26662 11.496 5.27075C11.522 5.27388 11.5345 5.27644 11.5345 5.27644L12.0044 5.34769V2.16681L11.5345 2.2385C11.5345 2.2385 11.5293 2.23956 11.5178 2.24113C11.4294 2.25463 11.0198 2.31494 10.5353 2.37162C10.2931 2.39975 10.0311 2.42675 9.78363 2.447C9.69994 2.45375 9.62119 2.45844 9.54138 2.46369C9.54738 2.36856 9.55363 2.27287 9.56219 2.172C9.59544 1.77225 9.64638 1.34494 9.68906 1.0195C9.71088 0.85625 9.73063 0.7185 9.74419 0.62125C9.75144 0.573437 9.75663 0.534938 9.76081 0.509C9.76394 0.483 9.76606 0.470062 9.76606 0.470062L9.83763 0H6.65719L6.72888 0.47C6.72888 0.47 6.72994 0.475688 6.73094 0.487687C6.74444 0.575 6.80375 0.985125 6.86094 1.46969C6.889 1.71244 6.91706 1.97394 6.93681 2.22137C6.94356 2.30562 6.94819 2.38412 6.95319 2.46362C6.85806 2.45738 6.76213 2.45162 6.66131 2.44281C6.26206 2.40956 5.83469 2.35856 5.50931 2.31494C5.34606 2.29413 5.20781 2.27437 5.11113 2.26087C5.06225 2.25356 5.02488 2.24844 4.99881 2.24475C4.97281 2.24113 4.95931 2.2385 4.95931 2.2385L4.48938 2.16725V5.34769L4.95931 5.27644C4.95931 5.27644 4.96556 5.27544 4.97694 5.27388C5.06431 5.26038 5.475 5.20006 5.95944 5.14388C6.20169 5.11475 6.46269 5.08775 6.71113 5.0675C6.7985 5.06019 6.88063 5.0555 6.963 5.05031C6.95931 5.18969 6.95444 5.34094 6.94813 5.50262C6.92944 6.03387 6.90031 6.65356 6.87644 7.13912C6.86913 7.29144 6.86238 7.423 6.85619 7.5425C5.94306 7.5425 4.82563 7.5425 4.30419 7.5425C3.77606 7.542 3.31856 7.73694 2.99944 8.03531C2.84031 8.1845 2.71244 8.35812 2.62519 8.54838C2.53675 8.73763 2.48788 8.9435 2.48788 9.1535C2.48788 9.25069 2.49931 9.34944 2.52219 9.44775L2.52113 9.44669C2.63138 9.92031 2.79356 10.4932 2.97444 11.0904C3.35731 12.3501 3.8265 13.7136 4.07181 14.4139H4.06506V14.8225C4.06506 14.8994 4.04844 14.967 4.01206 15.0429C3.958 15.1562 3.84988 15.2841 3.70019 15.4109C3.54944 15.5378 3.36125 15.6615 3.16469 15.778C2.98275 15.8856 2.83931 16.028 2.74469 16.1887C2.64906 16.3493 2.60119 16.5261 2.60119 16.6981C2.60225 16.8957 2.66356 17.0921 2.79669 17.2512C2.86325 17.3302 2.9485 17.3989 3.04831 17.4456C3.14813 17.4929 3.26044 17.5184 3.37269 17.5174H4.69575C4.66769 17.7939 4.59388 18.3662 4.40831 19.1201C4.14419 20.1879 3.65869 21.6044 2.77494 23.0091C2.50981 23.4302 2.21869 23.78 1.92031 24.1018C1.69788 24.3426 1.47119 24.5676 1.25388 24.7938C0.927375 25.1338 0.617625 25.4784 0.382625 25.8964C0.265125 26.1054 0.168375 26.3321 0.101875 26.5795C0.0353123 26.8274 0 27.0952 0 27.3848C0 27.4524 0.0020624 27.522 0.00624991 27.5938V27.5927C0.0218749 27.8854 0.108125 28.1391 0.231937 28.3397C0.325437 28.4904 0.436688 28.6116 0.547938 28.7068C0.618938 28.766 0.688313 28.8107 0.756438 28.8523L0.176813 29.8286V32H16.3172V29.8286L15.7396 28.8549C15.8431 28.7909 15.9523 28.7099 16.0573 28.6028C16.1674 28.4904 16.2704 28.3496 16.3473 28.1796C16.4253 28.0101 16.4773 27.8116 16.4887 27.5927C16.4928 27.5214 16.4949 27.4524 16.4949 27.3848C16.4959 26.8706 16.3794 26.4241 16.1871 26.0389ZM7.37869 4.21812C7.14369 4.21812 6.87238 4.23419 6.59269 4.25812C6.12975 4.29706 5.64969 4.35687 5.30656 4.40263V3.11287C5.442 3.13106 5.59688 3.15081 5.76606 3.17112C6.026 3.20231 6.313 3.2335 6.59269 3.25744C6.87238 3.28081 7.14369 3.29694 7.37869 3.29694H7.78731V2.88888C7.78631 2.65388 7.77069 2.3825 7.74675 2.10281C7.70775 1.64019 7.64825 1.15981 7.60225 0.816688H8.892C8.87381 0.951813 8.8535 1.10675 8.83325 1.27625C8.80206 1.53562 8.77088 1.82313 8.748 2.10281C8.72413 2.3825 8.70744 2.65388 8.70744 2.88888V3.29694H9.11606C9.35 3.29694 9.62131 3.28081 9.90206 3.25694C10.365 3.21794 10.8451 3.15819 11.1882 3.11244V4.40219C11.053 4.38394 10.8978 4.36419 10.7286 4.34344C10.4687 4.31275 10.1818 4.28156 9.90206 4.25819C9.62131 4.23425 9.35 4.21819 9.11606 4.21819H8.70744V4.62675C8.70744 4.85187 8.71681 5.17263 8.72925 5.53237C8.7545 6.21706 8.7945 7.03575 8.8205 7.54262C8.79038 7.54262 8.75656 7.54262 8.72825 7.54262C8.434 7.54262 8.24794 7.54262 8.24688 7.54262C8.24688 7.54262 8.01863 7.54262 7.67425 7.54262C7.6865 7.30087 7.70206 6.99156 7.71769 6.65525C7.73431 6.28662 7.75194 5.891 7.76444 5.53237C7.77794 5.17263 7.78631 4.85187 7.78631 4.62675V4.21812H7.37869ZM4.24919 12.4001C4.07244 11.8657 3.88844 11.2902 3.72313 10.7433C3.55888 10.1969 3.41431 9.67813 3.31763 9.26231V9.26125C3.30931 9.22744 3.30513 9.19213 3.30513 9.15369C3.30513 9.07256 3.32388 8.98263 3.36644 8.89213C3.42881 8.756 3.54219 8.62237 3.69913 8.52406C3.85619 8.42531 4.05681 8.36031 4.30425 8.35981C5.26394 8.35981 8.24688 8.35981 8.24688 8.35981C8.24688 8.35981 11.2308 8.35981 12.1894 8.35981C12.52 8.36088 12.7675 8.47525 12.938 8.63331C13.0223 8.71181 13.0867 8.80175 13.1283 8.89219C13.1698 8.98269 13.1896 9.07263 13.1896 9.15375C13.1896 9.19219 13.1854 9.22806 13.1771 9.26237C13.0743 9.70581 12.9162 10.2662 12.7384 10.8531C12.4711 11.7337 12.1572 12.6752 11.9108 13.3951C11.7881 13.7554 11.681 14.06 11.6051 14.2747C11.5869 14.3267 11.5708 14.3729 11.5562 14.4141H4.93806C4.81481 14.0667 4.5445 13.2931 4.24919 12.4001ZM3.44656 16.6062C3.46944 16.5693 3.50794 16.5245 3.58169 16.4803C3.86969 16.3083 4.17225 16.1107 4.42388 15.8508C4.54963 15.7209 4.663 15.5727 4.74613 15.4006C4.77213 15.3476 4.78825 15.2884 4.8075 15.2311H11.6868C11.7058 15.2884 11.7218 15.3476 11.7476 15.4006C11.8745 15.659 12.0636 15.8618 12.2674 16.0349C12.4723 16.208 12.6969 16.352 12.9131 16.4804C12.9869 16.5246 13.0254 16.5688 13.0473 16.6063C13.0701 16.6436 13.0753 16.6753 13.0753 16.6982L13.0751 16.7009H3.41881L3.41856 16.6982C3.4185 16.6752 3.42475 16.6436 3.44656 16.6062ZM1.03863 26.4018C1.14469 26.1891 1.28606 25.988 1.45969 25.7816C1.71856 25.4712 2.04919 25.1546 2.40163 24.7829C2.75413 24.4108 3.12844 23.9824 3.46631 23.4444C4.41663 21.9316 4.93019 20.4224 5.20781 19.2892C5.41781 18.4304 5.49269 17.7884 5.51719 17.5176H10.9777C11.0021 17.7884 11.0769 18.4304 11.287 19.2892C11.5646 20.4224 12.0772 21.9316 13.0285 23.4444C13.3279 23.9221 13.6576 24.314 13.9746 24.6566C14.2127 24.9134 14.4425 25.1427 14.6514 25.36C14.9654 25.6854 15.2243 25.9827 15.4001 26.2968C15.4874 26.4532 15.5561 26.6149 15.6028 26.7917C15.6506 26.9684 15.6776 27.1619 15.6776 27.3849C15.6776 27.4374 15.6766 27.4914 15.6735 27.5471C15.6631 27.7102 15.6215 27.8221 15.5664 27.9125C15.5248 27.9801 15.4739 28.0357 15.4177 28.083C15.3346 28.1537 15.2399 28.2036 15.1682 28.2327C15.1328 28.2473 15.1027 28.2566 15.085 28.2619L15.0679 28.2665L15.0653 28.2671L15.033 28.2738V28.2291H1.46175V28.2738L1.43056 28.2671C1.42844 28.2671 1.38481 28.2567 1.32344 28.2312C1.23094 28.1938 1.10406 28.1226 1.00844 28.0176C0.959563 27.9646 0.918 27.9037 0.88475 27.8288C0.8525 27.7539 0.828625 27.664 0.821375 27.5471V27.5455C0.81825 27.4909 0.817188 27.4373 0.817188 27.3849C0.818188 26.9891 0.899313 26.6856 1.03863 26.4018ZM15.5009 31.1828H0.993938V30.0532L1.592 29.0457H14.9028L15.5009 30.0532V31.1828Z" fill="url(#paint0_linear_146_341)" stroke="url(#paint1_linear_146_341)" stroke-width="4" mask="url(#path-1-inside-1_146_341)"/>
<defs>
<linearGradient id="paint0_linear_146_341" x1="8.24747" y1="0" x2="8.24747" y2="32" gradientUnits="userSpaceOnUse">
<stop offset="0.369" stop-color="#6717CD"/>
<stop offset="0.614" stop-color="#1E5EDD"/>
<stop offset="1" stop-color="#6498FF"/>
</linearGradient>
<linearGradient id="paint1_linear_146_341" x1="8.24747" y1="0" x2="8.24747" y2="32" gradientUnits="userSpaceOnUse">
<stop offset="0.369" stop-color="#6717CD"/>
<stop offset="0.614" stop-color="#1E5EDD"/>
<stop offset="1" stop-color="#6498FF"/>
</linearGradient>
</defs>
</svg>
