<svg width="20" height="20" viewBox="0 0 20 20" fill="none" xmlns="http://www.w3.org/2000/svg">
<path d="M18.9998 18.9998L13.8028 13.8028M13.8028 13.8028C15.2094 12.3962 15.9996 10.4885 15.9996 8.49931C15.9996 6.51011 15.2094 4.60238 13.8028 3.19581C12.3962 1.78923 10.4885 0.999023 8.49931 0.999023C6.51011 0.999023 4.60238 1.78923 3.19581 3.19581C1.78923 4.60238 0.999023 6.51011 0.999023 8.49931C0.999023 10.4885 1.78923 12.3962 3.19581 13.8028C4.60238 15.2094 6.51011 15.9996 8.49931 15.9996C10.4885 15.9996 12.3962 15.2094 13.8028 13.8028Z" stroke="url(#paint0_linear_123_357)" stroke-width="2" stroke-linecap="round" stroke-linejoin="round"/>
<defs>
<linearGradient id="paint0_linear_123_357" x1="9.99941" y1="0.999023" x2="9.99941" y2="18.9998" gradientUnits="userSpaceOnUse">
<stop offset="0.369" stop-color="#6717CD"/>
<stop offset="0.614" stop-color="#1E5EDD"/>
<stop offset="1" stop-color="#6498FF"/>
</linearGradient>
</defs>
</svg>
